<svg width="1200" height="600" viewBox="0 0 1200 600" fill="none" xmlns="http://www.w3.org/2000/svg">
<path d="M949.13 336.97L949.24 329.77" stroke="#284F72" stroke-width="2"/>
<path d="M201.181 133.035C201.291 145.677 211.405 155.837 223.77 155.729C236.135 155.621 246.069 145.286 245.959 132.644C245.849 120.003 235.735 109.843 223.37 109.951C211.005 110.059 201.071 120.394 201.181 133.035Z" fill="#DCECF9"/>
<path d="M73.0397 209.678C74.549 222.335 85.8641 231.392 98.3128 229.908C110.761 228.423 119.63 216.959 118.12 204.302C116.611 191.645 105.296 182.588 92.8473 184.072C80.3986 185.557 71.5304 197.021 73.0397 209.678Z" fill="#509EE3"/>
<path d="M328.415 210.081C330.117 222.669 341.6 231.508 354.062 229.823C366.524 228.138 375.247 216.567 373.545 203.979C371.843 191.391 360.36 182.552 347.898 184.237C335.436 185.922 326.713 197.493 328.415 210.081Z" fill="#509EE3"/>
<path d="M137.518 206.273C137.191 218.756 146.965 229.138 159.348 229.462C171.732 229.787 182.035 219.93 182.362 207.447C182.689 194.964 172.915 184.582 160.532 184.258C148.148 183.934 137.845 193.79 137.518 206.273Z" fill="#DCECF9"/>
<path d="M201.663 202.112C198.933 214.427 206.55 226.59 218.677 229.279C230.803 231.967 242.847 224.163 245.577 211.848C248.307 199.532 240.69 187.37 228.563 184.681C216.437 181.993 204.393 189.797 201.663 202.112Z" fill="#DCECF9"/>
<path d="M287.661 184.418L283.948 184.645C273.077 185.31 264.804 194.662 265.469 205.532L265.792 210.822C266.457 221.693 275.808 229.967 286.679 229.302L290.392 229.075C301.263 228.41 309.536 219.058 308.872 208.188L308.548 202.897C307.883 192.027 298.532 183.753 287.661 184.418Z" fill="#DCECF9"/>
<path d="M835.13 285.9C836.877 284.373 838.727 282.913 840.68 281.52C849.77 275.03 861.73 273.39 871.84 278.37C879.93 282.36 885.88 291.8 887.69 300.39C888.9 306.17 890.13 313.3 889.69 319.24C889.097 327.053 887.7 333.46 885.5 338.46C879.96 351.067 870.59 358.1 857.39 359.56C852.63 360.087 847.887 359.33 843.16 357.29C839.33 355.64 836.4 352.4 833.13 349.84C833.036 349.768 832.923 349.723 832.805 349.711C832.687 349.699 832.567 349.72 832.46 349.772C832.354 349.824 832.263 349.904 832.2 350.005C832.136 350.105 832.101 350.221 832.1 350.34L832.06 355.56C832.06 355.887 831.957 356.177 831.75 356.43C829.16 359.64 819.55 358.75 815.9 358.16C815.506 358.096 815.148 357.894 814.89 357.59C814.631 357.285 814.49 356.899 814.49 356.5L814.51 241.54C814.51 240.72 814.917 240.283 815.73 240.23C820.783 239.903 826.123 239.903 831.75 240.23C833.21 240.31 833.95 241.097 833.97 242.59C834.17 257.183 834.193 271.453 834.04 285.4C834.04 285.526 834.076 285.65 834.145 285.756C834.213 285.862 834.31 285.947 834.425 285.999C834.54 286.052 834.667 286.071 834.792 286.053C834.917 286.035 835.034 285.982 835.13 285.9ZM834.17 335.23C834.09 341.64 846.1 345.2 851.07 344.72C856.643 344.187 860.78 342.21 863.48 338.79C869.48 331.2 869.7 320.54 869.15 311.46C868.65 303.28 865.59 293.5 856.64 291.26C849.14 289.38 841.76 292.62 836.25 297.89C835.383 298.723 834.907 299.637 834.82 300.63C833.86 312.15 834.31 323.68 834.17 335.23Z" fill="#509EE3"/>
<path d="M542.75 276.32C531.543 297.513 520.263 318.753 508.91 340.04C507.963 341.807 506.527 343.03 504.6 343.71C495.47 346.94 492.09 342.15 488.14 334.67C478.453 316.297 469.337 299.437 460.79 284.09C459.55 281.863 458.337 279.663 457.15 277.49C456.57 276.417 455.96 275.69 455.32 275.31C454.807 275.003 454.647 275.133 454.84 275.7C455.387 277.26 455.817 278.777 456.13 280.25C456.43 281.657 456.567 283.267 456.54 285.08C456.367 298.347 456.267 311.617 456.24 324.89C456.21 335.5 456.88 346.29 456.56 357.12C456.54 357.753 456.213 358.097 455.58 358.15C449.493 358.65 443.917 358.66 438.85 358.18C438.478 358.145 438.133 357.972 437.882 357.695C437.63 357.417 437.491 357.056 437.49 356.68C437.457 320.513 437.42 284.957 437.38 250.01C437.38 247.977 437.473 245.893 437.66 243.76C437.693 243.427 437.873 243.25 438.2 243.23C445.407 242.877 450.993 242.85 454.96 243.15C457.533 243.343 459.543 244.773 460.99 247.44C471.77 267.32 482.463 287.11 493.07 306.81C495.383 311.103 497.36 315.327 499 319.48C499.54 320.84 500.093 320.847 500.66 319.5C502.433 315.293 504.47 311.07 506.77 306.83C517.763 286.517 528.233 266.83 538.18 247.77C539.687 244.897 542.24 243.353 545.84 243.14C550.447 242.88 554.917 242.787 559.25 242.86C561.25 242.9 562.253 243.917 562.26 245.91L562.62 356.85C562.621 357.073 562.578 357.293 562.492 357.499C562.407 357.705 562.28 357.891 562.121 358.048C561.962 358.204 561.772 358.328 561.565 358.411C561.357 358.493 561.134 358.534 560.91 358.53L544.79 358.21C543.87 358.19 543.41 357.72 543.41 356.8C543.397 330.313 543.443 305.797 543.55 283.25C543.56 280.83 544.27 278.71 543.43 276.37C543.237 275.837 543.01 275.82 542.75 276.32Z" fill="#509EE3"/>
<path d="M72.8968 273.619C73.8726 286.301 84.7835 295.803 97.2669 294.842C109.75 293.882 119.079 282.822 118.103 270.141C117.127 257.459 106.217 247.957 93.7332 248.918C81.2498 249.878 71.921 260.938 72.8968 273.619Z" fill="#509EE3"/>
<path d="M136.741 272.719C136.852 285.476 147.154 295.729 159.752 295.619C172.349 295.509 182.47 285.078 182.359 272.321C182.248 259.564 171.946 249.311 159.348 249.421C146.751 249.531 136.63 259.962 136.741 272.719Z" fill="#509EE3"/>
<path d="M264.521 272.688C264.61 285.478 274.805 295.777 287.292 295.689C299.779 295.602 309.829 285.163 309.739 272.372C309.65 259.581 299.455 249.283 286.968 249.37C274.481 249.458 264.431 259.897 264.521 272.688Z" fill="#509EE3"/>
<path d="M328.357 273.984C329.179 286.699 339.984 296.351 352.489 295.542C364.994 294.733 374.465 283.771 373.643 271.056C372.82 258.341 362.016 248.689 349.511 249.498C337.006 250.307 327.535 261.27 328.357 273.984Z" fill="#509EE3"/>
<path d="M202.46 265.54C202.85 261.75 206.56 256.9 209.04 255.04C215.78 249.987 222.683 248.463 229.75 250.47C235.403 252.07 239.56 255.167 242.22 259.76C246.33 266.84 247.18 274.95 243.97 282.16C240.15 290.753 233.09 295.037 222.79 295.01C211.72 294.98 202.47 287.48 202.13 276.05C202.023 272.23 202.133 268.727 202.46 265.54Z" fill="#DCECF9"/>
<path d="M695.29 277.42C696.28 277.49 697.26 277.77 698.26 277.73C702.96 277.54 708.4 276.93 713.01 277.7C713.571 277.793 714.079 278.086 714.443 278.525C714.806 278.964 715.001 279.519 714.99 280.09L714.8 290.15C714.796 290.368 714.749 290.582 714.662 290.782C714.575 290.981 714.449 291.161 714.292 291.312C714.135 291.462 713.95 291.58 713.747 291.659C713.544 291.738 713.328 291.775 713.11 291.77C707.817 291.623 702.833 291.497 698.16 291.39C697.093 291.37 696 291.473 694.88 291.7C693.9 291.907 693.413 292.513 693.42 293.52C693.487 306.807 693.6 321.017 693.76 336.15C693.8 340.33 696.4 343.67 700.7 343.97C703.27 344.15 705.82 342.54 708.19 341.64C708.724 341.438 709.31 341.415 709.859 341.573C710.409 341.732 710.893 342.064 711.24 342.52C713.213 345.127 715.057 347.927 716.77 350.92C717.437 352.087 717.2 353.063 716.06 353.85C713.56 355.577 710.82 356.903 707.84 357.83C699.47 360.42 691.31 360.91 683.52 356.39C674.6 351.21 674.42 341.97 674.56 332.61C674.687 323.463 674.647 314.453 674.44 305.58C674.35 301.49 674.92 297.57 674.78 293.43C674.767 293.097 674.653 292.807 674.44 292.56C671.72 289.42 665.66 293.39 662.6 289.28C661.2 287.38 661.89 284.32 661.67 282.04C661.614 281.489 661.765 280.937 662.094 280.49C662.423 280.044 662.906 279.734 663.45 279.62L673.2 277.66C673.703 277.559 674.167 277.317 674.539 276.963C674.91 276.609 675.174 276.158 675.3 275.66C676.4 271.373 677.21 267.143 677.73 262.97C678.08 260.11 679.05 257.45 679.86 254.67C681.04 250.58 689.07 251.41 692.05 251.9C692.377 251.953 692.613 252.13 692.76 252.43C693.193 253.303 693.413 254.257 693.42 255.29C693.48 262.197 693.473 268.893 693.4 275.38C693.394 275.896 693.586 276.394 693.938 276.774C694.289 277.153 694.773 277.384 695.29 277.42Z" fill="#509EE3"/>
<path d="M949.28 309.85C949.06 303.31 949.79 295.44 942.79 292.27C934.51 288.52 926.73 292.25 919.15 296.35C911.54 300.48 908.19 294.92 905.09 289.29C904.991 289.11 904.944 288.906 904.954 288.701C904.965 288.496 905.033 288.299 905.15 288.13C905.897 287.063 906.84 286.157 907.98 285.41C911.76 282.937 915.657 280.827 919.67 279.08C931.88 273.76 948.7 272.81 959.07 282.36C963.603 286.54 966.45 291.39 967.61 296.91C968.7 302.06 968.97 307.55 968.88 312.91C968.633 327.803 968.773 342.32 969.3 356.46C969.315 356.842 969.193 357.217 968.957 357.517C968.72 357.818 968.385 358.024 968.01 358.1C964.11 358.91 954.69 359.53 953.69 353.99C953.437 352.597 952.847 351.317 951.92 350.15C951.804 350.004 951.659 349.884 951.494 349.797C951.33 349.71 951.15 349.658 950.965 349.644C950.779 349.63 950.594 349.654 950.419 349.715C950.245 349.777 950.085 349.874 949.95 350C942.917 356.573 934.173 359.823 923.72 359.75C916.53 359.7 908 356.35 904.26 349.93C901.48 345.163 900.393 340.61 901 336.27C901.94 329.523 904.857 324.633 909.75 321.6C917.797 316.613 925.803 313.753 933.77 313.02C938.183 312.607 942.777 312.2 947.55 311.8C948.033 311.759 948.483 311.534 948.805 311.171C949.127 310.808 949.297 310.335 949.28 309.85ZM949.13 336.97L949.24 329.77C949.033 328.63 948.99 327.79 949.11 327.25C949.183 326.923 949.36 326.847 949.64 327.02C949.682 327.048 949.732 327.062 949.782 327.061C949.832 327.06 949.881 327.044 949.922 327.015C949.963 326.986 949.995 326.945 950.012 326.898C950.03 326.85 950.032 326.799 950.02 326.75C949.8 325.823 949.307 324.97 948.54 324.19C948.3 323.943 948.013 323.82 947.68 323.82C939.55 323.79 919.24 325.69 919.94 337.59C920.213 342.317 922.833 345.09 927.8 345.91C934.28 346.99 940.263 345.54 945.75 341.56C946.69 340.88 947.423 340.053 947.95 339.08C948.37 338.3 948.763 337.597 949.13 336.97Z" fill="#509EE3"/>
<path d="M775.87 309.92C775.73 300.6 774.37 291.99 763.32 290.75C757.17 290.06 750.9 292.89 745.5 296.08C738.2 300.39 733.69 295.23 731.06 289.15C730.973 288.947 730.947 288.724 730.984 288.506C731.022 288.288 731.121 288.084 731.27 287.92C732.403 286.66 733.7 285.537 735.16 284.55C745.99 277.25 759.34 273.31 772.09 275.99C782.24 278.13 790.06 285.21 793.07 295.18C794.003 298.273 794.42 303.297 794.32 310.25C794.1 325.91 794.223 341.41 794.69 356.75C794.704 357.19 794.543 357.617 794.244 357.939C793.944 358.261 793.529 358.452 793.09 358.47C786.35 358.79 778.89 359.15 778.18 350.32C778.16 350.087 778.074 349.865 777.932 349.679C777.791 349.493 777.599 349.352 777.38 349.271C777.16 349.19 776.923 349.173 776.694 349.223C776.466 349.272 776.256 349.386 776.09 349.55C769.177 356.377 760.527 359.777 750.14 359.75C740.09 359.72 731.46 354.93 727.75 345.13C725.823 340.05 726.167 334.827 728.78 329.46C731.053 324.787 734.877 321.21 740.25 318.73C748.81 314.777 757.323 312.69 765.79 312.47C768.71 312.4 771.7 311.98 774.58 311.48C774.945 311.418 775.275 311.227 775.512 310.94C775.749 310.654 775.876 310.292 775.87 309.92ZM754.17 326.9C749.81 328.39 743.79 333.83 745.53 339.01C747.1 343.67 751.14 346.08 755.97 346.21C762.57 346.39 768.283 344.4 773.11 340.24C774.71 338.853 775.547 337.107 775.62 335C775.74 331.413 775.757 328.067 775.67 324.96C775.665 324.694 775.56 324.441 775.376 324.251C775.192 324.062 774.943 323.95 774.68 323.94C767.813 323.6 760.977 324.587 754.17 326.9Z" fill="#509EE3"/>
<path d="M1072.01 320.34C1071.88 320.382 1071.76 320.453 1071.66 320.547C1071.56 320.641 1071.48 320.756 1071.43 320.883C1071.37 321.011 1071.35 321.149 1071.36 321.287C1071.37 321.424 1071.4 321.559 1071.47 321.68C1072.38 323.407 1072.93 325.07 1073.11 326.67C1073.82 333.01 1078.52 339.57 1083.51 342.03C1085.48 343.003 1087.84 343.747 1090.6 344.26C1098.14 345.67 1106.1 342.86 1112.86 338.98C1114.97 337.76 1116.89 337.453 1118.62 338.06C1121.33 339.02 1124.05 343.13 1125.59 345.54C1125.77 345.819 1125.86 346.149 1125.84 346.481C1125.82 346.813 1125.69 347.132 1125.48 347.39C1119.26 354.99 1107.02 358.72 1097.08 359.59C1079.86 361.1 1064.07 353.87 1056.93 337.72C1054.96 333.273 1053.5 328.087 1052.55 322.16C1052.01 318.793 1052.07 315.167 1052.73 311.28C1054.95 298.12 1059.65 287.73 1071.63 280.81C1075.16 278.763 1079.37 277.203 1084.25 276.13C1090.88 274.677 1097.71 275.183 1104.75 277.65C1121.24 283.43 1127.71 298.84 1127.36 315.81C1127.3 318.58 1124.56 319.84 1122.16 319.84C1107.08 319.847 1091.57 319.827 1075.63 319.78C1074.37 319.773 1073.16 319.96 1072.01 320.34ZM1073.73 308.23L1109.07 308.05C1109.11 308.05 1109.16 308.041 1109.2 308.024C1109.24 308.007 1109.28 307.982 1109.31 307.95C1109.34 307.919 1109.37 307.881 1109.38 307.84C1109.4 307.799 1109.41 307.755 1109.41 307.71L1109.4 307.19C1109.38 302.379 1107.47 297.775 1104.09 294.39C1100.71 291.005 1096.15 289.116 1091.4 289.14H1091.2C1086.45 289.166 1081.91 291.101 1078.57 294.52C1075.23 297.938 1073.37 302.56 1073.39 307.37V307.89C1073.39 307.935 1073.4 307.979 1073.42 308.02C1073.43 308.061 1073.46 308.099 1073.49 308.13C1073.52 308.162 1073.56 308.187 1073.6 308.204C1073.64 308.221 1073.69 308.23 1073.73 308.23Z" fill="#509EE3"/>
<path d="M597.71 322.06C597.83 323.22 599.03 324.98 599.27 326.5C600.57 334.67 605.76 341.48 613.77 343.55C616.63 344.29 619.14 345 622.2 344.63C627.04 344.05 631.023 342.953 634.15 341.34C636.557 340.093 638.97 338.997 641.39 338.05C643.217 337.337 644.89 337.647 646.41 338.98C648.41 340.75 653.43 345.86 650.62 348.6C642.09 356.88 629.03 360.04 617.37 359.72C585.94 358.86 572.42 327.67 581.47 300.8C584.97 290.387 591.95 282.997 602.41 278.63C612.45 274.43 622.517 274.3 632.61 278.24C643.36 282.43 650.07 291.67 652.31 302.76C653.09 306.607 653.577 310.29 653.77 313.81C653.983 317.657 652.37 319.64 648.93 319.76C638.25 320.15 625.49 319.67 613.77 319.79C609.557 319.837 604.897 319.83 599.79 319.77C598.237 319.75 597.543 320.513 597.71 322.06ZM599.99 308.19L635.27 308.01C635.363 308.01 635.452 307.973 635.518 307.908C635.583 307.842 635.62 307.753 635.62 307.66L635.61 306.7C635.598 304.398 635.125 302.12 634.216 299.998C633.307 297.876 631.981 295.95 630.313 294.33C628.645 292.711 626.669 291.429 624.496 290.559C622.323 289.689 619.997 289.248 617.65 289.26H617.41C612.671 289.284 608.135 291.154 604.801 294.459C601.467 297.763 599.607 302.231 599.63 306.88L599.64 307.84C599.64 307.886 599.649 307.931 599.667 307.974C599.684 308.016 599.71 308.055 599.743 308.088C599.775 308.12 599.814 308.146 599.856 308.163C599.899 308.181 599.944 308.19 599.99 308.19Z" fill="#509EE3"/>
<path d="M1023.91 337.51C1025.42 331.9 1016.63 327.67 1012.5 326.37C1001.87 323.01 986.52 319.51 984.4 306.18C982.61 294.9 986.04 285.28 996.29 280.02C1006.86 274.593 1017.63 273.993 1028.6 278.22C1031.92 279.5 1035.33 281.257 1038.82 283.49C1042.2 285.65 1039.24 289.38 1037.81 291.65C1035.49 295.35 1032.62 295.27 1029.1 293.61C1024.11 291.263 1019.38 289.967 1014.91 289.72C1010.84 289.5 1004.08 291.66 1002.69 296.33C1000.92 302.29 1006.27 305.62 1011.11 307.41C1015.14 308.903 1019.16 310.28 1023.19 311.54C1037.98 316.15 1046.32 327.17 1040.13 342.86C1036.66 351.66 1028.94 356.84 1019.51 358.74C1006.8 361.31 993.33 358.99 982.86 351.22C982.458 350.921 982.166 350.498 982.029 350.016C981.891 349.533 981.916 349.018 982.1 348.55C984 343.79 987.72 337.86 993.62 340.56C997.38 342.29 1000.86 344.53 1004.92 345.43C1012.51 347.11 1021.55 346.29 1023.91 337.51Z" fill="#509EE3"/>
<path d="M72.7705 336.929C72.859 349.604 83.1339 359.807 95.7202 359.719C108.306 359.631 118.438 349.285 118.349 336.611C118.261 323.936 107.986 313.733 95.3998 313.82C82.8135 313.908 72.6821 324.254 72.7705 336.929Z" fill="#509EE3"/>
<path d="M200.717 335.933C199.897 348.615 209.388 359.552 221.915 360.362C234.442 361.172 245.263 351.548 246.083 338.867C246.903 326.185 237.412 315.248 224.885 314.438C212.358 313.628 201.537 323.252 200.717 335.933Z" fill="#509EE3"/>
<path d="M350.98 360.3C363.633 360.3 373.89 350.043 373.89 337.39C373.89 324.737 363.633 314.48 350.98 314.48C338.327 314.48 328.07 324.737 328.07 337.39C328.07 350.043 338.327 360.3 350.98 360.3Z" fill="#509EE3"/>
<path d="M137.691 334.493C136.048 346.977 144.636 358.404 156.874 360.015C169.112 361.626 180.365 352.812 182.009 340.327C183.652 327.843 175.064 316.416 162.826 314.805C150.588 313.194 139.335 322.008 137.691 334.493Z" fill="#DCECF9"/>
<path d="M266.63 329.38C269.08 320.55 277.49 315.59 286.22 314.65C288.36 314.417 290.71 314.673 293.27 315.42C301.363 317.78 306.317 322.863 308.13 330.67C308.857 333.803 309.013 337.897 308.6 342.95C307.42 357.66 288.47 363.75 276.67 357.64C270.11 354.247 266.467 348.89 265.74 341.57C265.307 337.163 265.603 333.1 266.63 329.38Z" fill="#DCECF9"/>
<path d="M72.8952 402.472C73.3635 415.243 83.8995 425.224 96.4279 424.764C108.956 424.305 118.733 413.579 118.265 400.808C117.796 388.037 107.26 378.056 94.7321 378.515C82.2036 378.975 72.4269 389.7 72.8952 402.472Z" fill="#509EE3"/>
<path d="M265.62 398.5C266.22 388.12 276.12 380.29 285.94 379.29C287.92 379.083 290.357 379.397 293.25 380.23C303.4 383.17 309.28 391.15 308.77 401.58C308.61 404.94 309.05 408.73 307.74 411.82C305.56 416.993 301.927 420.663 296.84 422.83C291.687 425.023 287 425.573 282.78 424.48C272.83 421.89 265.25 415.29 265.41 404.17C265.437 402.323 265.507 400.433 265.62 398.5Z" fill="#DCECF9"/>
<path d="M328.283 401.268C327.706 413.974 337.409 424.737 349.955 425.306C362.501 425.876 373.14 416.038 373.717 403.331C374.293 390.625 364.591 379.863 352.045 379.294C339.499 378.724 328.86 388.562 328.283 401.268Z" fill="#509EE3"/>
<path d="M137.53 402.241C137.508 414.85 147.497 425.088 159.84 425.11C172.184 425.131 182.208 414.928 182.23 402.319C182.252 389.71 172.263 379.472 159.92 379.45C147.576 379.428 137.552 389.632 137.53 402.241Z" fill="#DCECF9"/>
<path d="M201.404 399.838C199.977 412.36 208.771 423.645 221.047 425.043C233.322 426.442 244.429 417.424 245.856 404.902C247.283 392.38 238.488 381.095 226.213 379.697C213.938 378.298 202.83 387.315 201.404 399.838Z" fill="#DCECF9"/>
<path d="M201.21 466.474C200.836 479.083 210.575 489.602 222.962 489.97C235.35 490.338 245.696 480.414 246.07 467.806C246.444 455.197 236.705 444.678 224.318 444.31C211.93 443.942 201.584 453.866 201.21 466.474Z" fill="#DCECF9"/>
</svg>
